<?xml version="1.0" standalone="no"?>
<!DOCTYPE svg PUBLIC "-//W3C//DTD SVG 20010904//EN"
 "http://www.w3.org/TR/2001/REC-SVG-20010904/DTD/svg10.dtd">
<svg version="1.0" xmlns="http://www.w3.org/2000/svg"
 width="2000.000000pt" height="2000.000000pt" viewBox="0 0 2000.000000 2000.000000"
 preserveAspectRatio="xMidYMid meet">

<g transform="translate(0.000000,2000.000000) scale(0.100000,-0.100000)"
fill="#000000" stroke="none">
<path d="M8245 12398 c-30 -32 -70 -91 -99 -146 l-48 -94 -34 6 c-72 14 -183
14 -233 1 -55 -14 -139 -70 -165 -110 -9 -13 -16 -36 -16 -50 0 -31 20 -40
109 -52 l65 -8 -115 -44 c-239 -91 -471 -227 -558 -326 -19 -22 -45 -64 -59
-94 -23 -50 -24 -62 -19 -155 9 -162 51 -348 182 -816 34 -124 73 -267 85
-319 l23 -94 -28 -86 c-17 -53 -28 -108 -28 -143 0 -32 -4 -58 -8 -58 -5 0
-24 -13 -42 -30 -33 -29 -36 -30 -88 -20 -93 18 -290 40 -419 48 -291 17
-1040 7 -1410 -18 -1481 -102 -2152 -255 -2489 -566 -155 -142 -234 -347 -217
-557 4 -42 24 -166 46 -275 102 -512 252 -1849 375 -3337 3 -33 14 -166 25
-295 30 -351 70 -868 70 -901 l0 -29 -547 -2 -548 -3 -3 -138 -3 -137 8041 0
8041 0 -3 138 -3 137 -422 3 -423 2 0 1055 0 1055 -367 0 -366 0 7 100 c3 56
13 149 21 207 11 80 12 109 4 114 -20 12 -3 36 29 42 67 13 358 136 527 221
271 138 502 294 711 483 74 67 94 80 103 69 9 -11 -7 -31 -76 -96 -253 -236
-632 -471 -998 -619 -179 -72 -180 -72 -115 -65 204 22 569 102 745 164 169
60 238 103 366 230 156 155 275 326 415 595 76 145 76 146 48 140 -305 -68
-741 -218 -974 -335 -127 -64 -269 -160 -339 -229 -57 -56 -258 -311 -354
-449 -29 -40 -53 -68 -55 -62 -5 14 28 160 74 330 35 131 104 346 173 540 50
142 95 321 115 460 23 163 24 170 10 170 -10 0 -29 30 -22 35 2 1 35 19 73 40
344 188 724 490 832 661 28 43 46 54 58 34 15 -24 -169 -234 -305 -347 -122
-102 -336 -249 -501 -344 -51 -30 -86 -55 -77 -57 8 -2 73 9 143 23 325 66
581 212 739 422 117 156 195 330 236 532 21 106 38 355 24 363 -11 7 -289
-200 -465 -347 -177 -146 -349 -318 -436 -435 -93 -124 -192 -283 -234 -376
-19 -40 -37 -73 -41 -74 -5 0 -8 78 -8 173 -1 94 -3 199 -6 232 -6 68 -43 330
-50 360 -4 16 22 43 128 131 485 405 811 789 910 1074 69 200 76 734 17 1315
-11 110 -24 216 -28 235 l-7 34 -18 -49 c-30 -79 -167 -361 -230 -473 -62
-111 -142 -222 -323 -449 -423 -530 -529 -761 -561 -1218 l-7 -100 -28 90
c-47 155 -126 371 -232 635 -56 140 -108 278 -115 305 -7 28 -17 55 -22 62 -6
7 9 42 42 100 138 238 267 521 306 671 2 6 11 12 20 12 55 0 -65 -294 -270
-662 -29 -54 -51 -98 -49 -98 16 0 147 104 202 160 208 210 276 485 197 793
-14 50 -32 110 -41 131 -21 49 -19 51 -130 -129 -103 -166 -223 -405 -259
-513 -33 -99 -64 -240 -72 -331 -4 -39 -10 -71 -14 -71 -4 0 -15 21 -25 48
-38 101 -139 291 -215 403 -94 139 -162 265 -225 414 -25 61 -52 124 -59 140
l-14 30 -27 -59 c-93 -209 -109 -470 -40 -669 75 -217 266 -387 540 -482 44
-16 84 -31 88 -35 22 -19 248 -603 321 -830 53 -164 128 -447 124 -466 -2 -8
-34 26 -73 74 -105 130 -228 256 -335 340 -119 94 -270 246 -377 379 -45 57
-85 99 -88 94 -3 -5 -8 -56 -11 -113 -22 -360 137 -671 410 -803 114 -55 219
-82 379 -96 114 -11 126 -14 131 -33 16 -67 47 -324 56 -467 11 -181 2 -391
-25 -569 -16 -112 -76 -370 -85 -370 -3 0 -11 26 -18 58 -7 31 -27 92 -46 134
-59 134 -136 237 -330 437 -284 293 -584 674 -1005 1276 -74 105 -137 194
-142 199 -5 5 -6 -12 -4 -40 3 -27 10 -110 16 -184 13 -171 52 -465 85 -643
70 -384 174 -690 292 -864 54 -80 172 -187 268 -245 71 -43 265 -124 311 -130
10 -2 -1109 -5 -2487 -8 l-2505 -5 -51 105 c-186 386 -450 698 -789 935 -38
27 -72 50 -74 51 -4 3 41 191 49 202 3 4 29 23 57 41 112 71 244 244 306 401
35 89 57 214 57 322 0 88 1 90 35 131 75 87 61 115 -78 158 -56 17 -113 35
-127 39 -14 4 -24 12 -23 16 1 5 7 74 14 152 7 78 15 141 18 139 49 -28 87
-38 108 -28 26 12 53 66 53 106 0 14 5 25 10 25 6 0 10 -7 10 -15 0 -32 65
-147 102 -180 31 -29 46 -35 81 -35 125 1 272 157 293 312 8 59 -7 106 -92
292 -36 77 -66 147 -67 154 -1 8 23 23 58 36 104 38 158 69 207 119 27 27 51
60 54 74 13 51 -15 68 -158 98 -110 23 -187 81 -357 270 -158 174 -216 234
-364 372 l-108 101 53 -2 c47 -1 53 1 56 20 13 92 -383 299 -871 453 -598 190
-993 189 -1280 -4 l-66 -44 6 90 c5 77 4 92 -12 109 -29 32 -55 24 -110 -32z
m7659 -1400 c23 -89 95 -232 158 -314 61 -79 176 -185 250 -231 32 -20 58 -40
58 -45 0 -46 -131 34 -249 153 -118 117 -197 244 -246 395 -30 91 -31 114 -7
114 13 0 22 -17 36 -72z m-7339 -235 c-10 -16 -55 -80 -100 -143 -180 -253
-235 -353 -235 -426 0 -65 25 -89 91 -87 57 1 164 36 260 84 l56 28 -5 -25
c-9 -46 21 -64 108 -64 158 0 294 -71 382 -198 25 -36 27 -43 12 -39 -163 47
-497 41 -814 -14 -158 -27 -225 -46 -292 -79 -65 -33 -178 -52 -178 -29 1 23
32 55 93 93 127 80 203 174 214 264 5 43 0 60 -33 133 -65 146 -59 277 19 366
40 45 68 59 173 82 49 11 125 33 169 49 100 38 101 38 80 5z m1720 -270 c66
-81 164 -194 218 -250 l99 -102 -17 -158 c-9 -87 -19 -161 -20 -164 -2 -3 -39
1 -82 9 -49 10 -144 16 -258 16 -179 1 -181 1 -310 -36 -169 -48 -240 -60
-355 -61 -104 0 -174 15 -205 43 -23 22 -119 73 -155 84 l-25 7 25 10 c50 20
54 67 10 126 l-30 41 142 75 c154 79 531 305 718 429 63 42 117 77 120 77 3 1
59 -65 125 -146z m-1186 -49 c-12 -27 -37 -94 -55 -149 -18 -55 -37 -99 -41
-98 -4 1 -35 12 -68 24 -33 11 -98 24 -145 27 l-84 7 124 72 c69 39 161 94
205 122 44 27 81 48 83 47 1 -2 -7 -25 -19 -52z m8467 -410 c-38 -148 -335
-700 -589 -1092 -71 -110 -57 -108 -220 -27 -213 106 -391 227 -508 344 -79
79 -106 118 -92 132 7 7 45 -25 114 -93 146 -145 330 -269 546 -369 l82 -38
78 122 c256 404 481 824 556 1039 10 28 40 11 33 -18z m-8513 -240 c101 -19
171 -47 227 -90 24 -19 54 -37 67 -40 28 -7 28 -5 3 -51 -11 -21 -20 -43 -20
-49 0 -7 -20 -76 -45 -153 -95 -292 -160 -408 -277 -486 -106 -72 -177 -98
-278 -103 -97 -5 -171 15 -275 73 -123 69 -175 132 -222 268 -23 67 -123 488
-126 532 -2 17 11 23 83 42 176 47 537 85 715 75 39 -2 105 -10 148 -18z
m-1599 -54 c86 -59 216 -243 315 -450 48 -98 54 -106 69 -87 9 11 3 32 -28 95
l-39 82 24 35 c25 37 45 113 45 169 l0 33 77 7 c42 3 80 3 84 -1 4 -5 24 -83
44 -175 83 -388 135 -500 278 -602 137 -97 248 -136 387 -136 144 0 237 33
386 139 80 56 139 135 199 263 38 84 103 270 130 373 10 39 23 76 28 83 5 6
29 12 54 12 94 0 128 -88 173 -450 12 -91 26 -183 31 -204 24 -90 195 -206
355 -242 74 -16 157 -15 238 2 28 7 28 6 21 -27 -23 -107 -93 -342 -137 -459
-68 -182 -111 -262 -221 -410 -256 -343 -518 -539 -784 -585 -82 -14 -98 -14
-157 -1 -225 52 -514 313 -846 761 -221 297 -317 461 -395 674 l-43 114 34 32
c35 33 45 65 21 65 -8 0 -24 -11 -37 -25 -13 -14 -38 -29 -56 -34 -118 -33
-310 91 -396 255 -76 144 -117 361 -97 516 13 102 32 150 77 189 30 27 41 31
77 26 25 -2 61 -17 89 -37z m3011 -25 c89 -16 247 -53 254 -60 2 -2 -8 -14
-22 -27 -24 -23 -24 -24 -14 -103 8 -65 7 -99 -6 -177 -19 -110 -43 -178 -63
-178 -10 0 -13 -7 -9 -22 14 -57 -157 -270 -257 -321 -139 -70 -328 -54 -436
38 -71 61 -98 133 -127 336 -35 243 -75 389 -115 414 -23 14 -5 22 91 39 56
10 141 29 188 43 47 14 106 29 131 34 64 12 278 3 385 -16z m-3151 -754 c16
-17 13 -21 -66 -78 -209 -152 -394 -368 -578 -673 -72 -120 -170 -316 -170
-342 0 -47 32 -5 98 125 137 274 292 495 472 678 152 153 300 262 300 219 0
-5 -28 -47 -62 -92 -73 -99 -159 -274 -187 -381 -44 -168 -49 -276 -61 -1202
-10 -748 -6 -715 -109 -998 -33 -93 -61 -183 -61 -202 0 -38 21 -64 53 -66
106 -5 182 54 420 326 262 300 342 375 403 375 63 0 112 -73 195 -290 34 -89
53 -124 84 -155 59 -60 195 -118 279 -119 39 -1 42 2 109 89 38 50 88 121 111
160 l41 70 0 163 0 164 28 24 c73 62 149 7 469 -337 71 -77 143 -144 163 -153
109 -52 114 63 15 394 -58 195 -91 335 -105 445 l-6 50 89 21 c264 63 517 262
775 607 74 100 180 305 223 432 15 44 31 84 35 89 17 19 351 -189 514 -321
124 -100 215 -196 268 -282 53 -86 167 -325 167 -349 0 -23 -109 -468 -394
-1612 -114 -454 -209 -836 -212 -849 -3 -13 -7 -21 -10 -19 -14 15 -123 837
-164 1238 -12 113 -26 209 -31 215 -6 5 -13 5 -20 -2 -22 -22 86 -906 186
-1528 5 -32 -13 -117 -85 -405 -50 -201 -95 -368 -99 -373 -4 -4 -413 -6 -910
-5 l-903 3 146 99 146 99 45 -13 c25 -7 64 -10 88 -7 42 6 45 4 80 -38 58 -69
149 -83 205 -32 18 17 22 31 22 76 0 31 -5 76 -11 100 -5 24 -6 48 -2 52 4 4
40 14 79 22 70 14 76 14 255 -20 228 -43 324 -43 411 0 75 37 128 96 128 142
0 65 -55 97 -220 125 -120 21 -157 33 -256 83 -121 61 -168 70 -314 62 l-127
-7 -8 153 c-8 173 -27 303 -54 364 -55 125 -201 149 -374 61 l-88 -44 -14 28
c-22 42 -82 90 -113 90 -64 -1 -215 -86 -349 -198 -56 -47 -62 -49 -137 -56
-43 -4 -102 -16 -131 -27 -50 -19 -56 -19 -84 -5 -43 23 -116 20 -162 -6 -76
-43 -148 -161 -275 -453 -47 -110 -155 -342 -240 -515 l-154 -315 -647 0 -648
0 -22 150 c-33 231 -46 434 -47 745 -1 271 0 292 26 425 54 278 80 527 94 866
6 179 3 219 -20 219 -10 0 -14 -50 -19 -212 -8 -247 -27 -466 -63 -698 -35
-232 -38 -237 -53 -84 -15 165 -94 791 -120 959 -20 126 -31 159 -50 140 -6
-6 -1 -67 14 -165 92 -588 146 -1171 159 -1725 5 -176 23 -376 49 -542 l14
-83 -928 0 -928 0 4 28 c3 15 23 187 45 382 22 195 66 591 99 880 106 931 206
1863 220 2047 7 100 11 117 36 153 88 127 363 328 830 607 299 179 840 486
1010 574 275 142 613 284 975 410 107 37 195 68 196 68 0 1 8 -7 18 -18z m155
-149 c33 -22 81 -45 108 -51 26 -7 53 -14 60 -16 8 -3 6 -24 -8 -77 -31 -119
-58 -304 -68 -454 -27 -392 63 -776 312 -1344 49 -113 108 -241 130 -285 44
-88 158 -272 236 -379 28 -39 48 -72 46 -74 -8 -8 -129 39 -177 70 -53 33 -77
75 -143 251 -61 162 -126 237 -205 237 -70 0 -123 -46 -360 -315 -250 -284
-343 -370 -420 -388 -65 -16 -64 28 5 208 63 164 92 282 104 426 5 68 13 408
16 754 3 347 8 655 10 685 2 30 7 93 10 140 10 156 64 332 144 468 38 63 126
182 136 182 2 0 31 -17 64 -38z m8405 -647 c19 -51 136 -205 225 -298 160
-165 381 -322 577 -408 77 -34 79 -36 65 -57 -6 -11 -35 0 -131 48 -329 163
-585 389 -747 656 -23 38 -28 55 -20 63 15 15 24 14 31 -4z m-7762 -463 l227
-7 57 -65 c32 -36 93 -100 136 -143 43 -43 78 -81 78 -85 0 -4 -36 -76 -79
-162 -43 -85 -90 -191 -104 -235 -53 -171 -85 -398 -94 -664 l-6 -184 -24 29
c-38 46 -185 271 -237 362 -88 154 -285 623 -350 832 -29 96 -86 312 -86 330
0 5 122 3 482 -8z m8283 -307 c44 -8 151 -18 238 -22 86 -3 157 -7 157 -8 0
-2 -22 -64 -49 -139 -92 -255 -173 -549 -220 -801 -25 -136 -51 -350 -51 -427
l0 -58 -235 0 -235 0 0 -1055 0 -1055 -305 0 -305 0 0 75 c0 73 1 75 24 75 15
0 27 7 30 18 3 9 145 580 316 1267 490 1975 534 2145 545 2145 5 0 46 -7 90
-15z m-155 -24 c0 -8 -197 -806 -654 -2640 -96 -387 -177 -705 -179 -707 -2
-2 -1108 -3 -2458 -2 l-2455 3 414 1665 c227 916 415 1671 417 1678 4 9 504
12 2460 12 1463 0 2455 -4 2455 -9z m-7516 -55 c124 -95 259 -156 343 -156 41
0 47 -12 63 -130 14 -98 51 -248 110 -440 42 -137 65 -300 43 -300 -21 0 -105
78 -231 215 -227 247 -302 306 -386 307 -58 1 -85 -16 -108 -70 -19 -42 -20
-59 -15 -183 l7 -137 -48 -78 c-54 -90 -117 -175 -128 -174 -12 0 -5 238 12
399 17 163 45 320 75 419 21 65 174 382 186 382 3 0 38 -24 77 -54z m-80
-1967 c35 -28 90 -146 171 -369 37 -102 83 -216 102 -254 19 -37 32 -70 30
-73 -13 -12 -135 83 -249 193 -212 204 -287 260 -395 294 l-56 17 54 43 c123
97 249 170 295 170 12 0 33 -9 48 -21z m442 -15 c56 -27 89 -99 109 -239 3
-22 10 -170 15 -330 8 -252 13 -304 34 -400 32 -138 34 -210 7 -225 -39 -20
-79 -12 -121 26 -22 20 -40 41 -40 46 0 5 9 21 20 35 43 54 23 127 -97 368
-44 88 -104 223 -132 300 -42 115 -118 312 -129 335 -4 9 104 71 150 85 60 19
143 18 184 -1z m-776 -237 c93 -38 168 -96 325 -248 83 -81 178 -164 211 -184
32 -21 69 -47 81 -58 22 -20 22 -21 5 -40 -20 -23 -105 -67 -128 -67 -9 0 -35
17 -59 38 -24 21 -104 74 -179 117 -234 137 -353 218 -471 321 -62 54 -112
104 -111 109 4 16 103 33 191 34 62 0 93 -5 135 -22z m-386 -31 c28 -19 92
-71 141 -116 97 -88 273 -208 491 -335 143 -83 198 -126 192 -147 -2 -7 -22
-22 -44 -33 -33 -17 -58 -20 -159 -20 -101 1 -129 5 -177 23 -72 29 -180 100
-283 185 -84 71 -195 126 -262 130 l-37 2 -98 -159 c-53 -88 -95 -163 -92
-168 15 -23 39 4 119 137 48 80 91 148 95 150 10 6 105 -27 155 -53 22 -12 81
-55 130 -97 114 -95 252 -168 355 -185 74 -13 199 -8 244 10 21 8 28 1 77 -68
30 -42 54 -80 54 -84 0 -11 -211 -155 -280 -191 l-60 -32 -285 -3 c-206 -2
-287 -6 -292 -15 -4 -7 -8 -41 -8 -76 0 -49 -4 -67 -17 -77 -14 -11 -97 -13
-390 -14 -219 0 -373 4 -373 9 0 5 66 144 146 308 80 164 170 354 199 423 117
275 201 435 257 487 66 62 120 65 202 9z m1743 -394 c126 -58 185 -76 292 -93
87 -13 155 -40 170 -67 21 -38 -65 -119 -153 -143 -58 -16 -207 -5 -355 25
-141 30 -191 32 -276 12 -33 -8 -62 -13 -64 -10 -12 12 -30 151 -31 231 l0 92
63 4 c34 2 103 4 152 3 86 -2 95 -4 202 -54z m-644 -164 c80 -174 85 -217 28
-255 -84 -56 -190 -9 -270 120 -21 34 -22 40 -8 60 8 12 33 27 58 34 57 15
140 68 146 93 3 11 7 20 9 20 2 0 19 -33 37 -72z m3888 -538 l2439 0 0 -70 0
-70 -2460 0 -2460 0 0 68 c0 72 5 86 28 77 7 -3 1111 -5 2453 -5z m5187 -282
l3 -98 -8006 0 -8005 0 0 100 0 100 8003 -2 8002 -3 3 -97z"/>
<path d="M10005 10020 c-55 -11 -136 -43 -190 -75 -55 -31 -72 -67 -51 -100
24 -36 49 -36 120 1 131 68 270 81 428 38 65 -17 68 -17 88 1 25 22 26 66 2
88 -47 42 -281 70 -397 47z"/>
<path d="M8345 9640 c-3 -5 0 -13 9 -16 21 -8 71 -1 71 11 0 14 -72 19 -80 5z"/>
<path d="M8473 9638 c2 -9 29 -13 87 -13 58 0 85 4 88 13 3 9 -19 12 -88 12
-69 0 -91 -3 -87 -12z"/>
<path d="M8697 9644 c-8 -8 1 -24 14 -24 5 0 9 7 9 15 0 15 -12 20 -23 9z"/>
<path d="M8747 9644 c-8 -8 1 -24 14 -24 5 0 9 7 9 15 0 15 -12 20 -23 9z"/>
<path d="M8795 9641 c-7 -12 12 -24 25 -16 11 7 4 25 -10 25 -5 0 -11 -4 -15
-9z"/>
<path d="M8850 9635 c0 -9 5 -15 11 -13 6 2 11 8 11 13 0 5 -5 11 -11 13 -6 2
-11 -4 -11 -13z"/>
<path d="M8900 9635 c0 -9 5 -15 11 -13 6 2 11 8 11 13 0 5 -5 11 -11 13 -6 2
-11 -4 -11 -13z"/>
<path d="M8955 9641 c-6 -11 9 -23 19 -14 9 9 7 23 -3 23 -6 0 -12 -4 -16 -9z"/>
<path d="M8345 9570 c-3 -5 0 -13 9 -16 21 -8 71 -1 71 11 0 14 -72 19 -80 5z"/>
<path d="M8473 9568 c2 -9 29 -13 87 -13 58 0 85 4 88 13 3 9 -19 12 -88 12
-69 0 -91 -3 -87 -12z"/>
<path d="M8372 9512 c-20 -2 -32 -8 -29 -15 5 -15 79 -16 84 -1 5 15 -14 20
-55 16z"/>
<path d="M8695 9510 c-4 -6 -3 -16 3 -22 6 -6 12 -6 17 2 4 6 3 16 -3 22 -6 6
-12 6 -17 -2z"/>
<path d="M8905 9510 c-4 -6 -3 -16 3 -22 6 -6 12 -6 17 2 4 6 3 16 -3 22 -6 6
-12 6 -17 -2z"/>
<path d="M8473 9498 c2 -9 29 -13 87 -13 58 0 85 4 88 13 3 9 -19 12 -88 12
-69 0 -91 -3 -87 -12z"/>
<path d="M8745 9501 c-6 -11 9 -23 19 -14 9 9 7 23 -3 23 -6 0 -12 -4 -16 -9z"/>
<path d="M8795 9501 c-7 -12 12 -24 25 -16 11 7 4 25 -10 25 -5 0 -11 -4 -15
-9z"/>
<path d="M8852 9501 c2 -7 7 -12 11 -12 12 1 9 15 -3 20 -7 2 -11 -2 -8 -8z"/>
<path d="M8952 9499 c2 -6 8 -10 13 -10 5 0 11 4 13 10 2 6 -4 11 -13 11 -9 0
-15 -5 -13 -11z"/>
<path d="M8373 9442 c-18 -2 -33 -7 -33 -13 0 -5 3 -9 8 -10 4 0 18 -2 32 -3
29 -4 50 3 50 14 0 12 -21 16 -57 12z"/>
<path d="M8478 9439 c-25 -16 8 -26 83 -25 56 1 84 5 87 14 2 6 0 12 -5 12
-70 5 -157 4 -165 -1z"/>
<path d="M8347 9373 c-16 -16 -4 -23 38 -23 45 0 60 12 29 24 -21 8 -59 8 -67
-1z"/>
<path d="M8477 9374 c-18 -19 0 -24 84 -24 68 0 90 3 87 13 -5 13 -158 23
-171 11z"/>
<path d="M8875 9310 c-4 -6 -3 -16 3 -22 6 -6 12 -6 17 2 4 6 3 16 -3 22 -6 6
-12 6 -17 -2z"/>
<path d="M8926 9313 c-11 -11 -6 -23 9 -23 8 0 15 4 15 9 0 13 -16 22 -24 14z"/>
<path d="M8975 9310 c-4 -6 -3 -16 3 -22 6 -6 12 -6 17 2 4 6 3 16 -3 22 -6 6
-12 6 -17 -2z"/>
<path d="M9026 9313 c-11 -11 -6 -23 9 -23 8 0 15 4 15 9 0 13 -16 22 -24 14z"/>
<path d="M9076 9312 c-3 -6 -1 -14 5 -17 15 -10 25 3 12 16 -7 7 -13 7 -17 1z"/>
<path d="M9136 9311 c-4 -7 -5 -15 -2 -18 9 -9 19 4 14 18 -4 11 -6 11 -12 0z"/>
<path d="M8347 9304 c-17 -17 -4 -25 36 -22 23 2 42 8 42 13 0 12 -67 19 -78
9z"/>
<path d="M8667 9304 c-18 -19 0 -24 84 -24 68 0 90 3 87 13 -5 13 -158 23
-171 11z"/>
<path d="M8345 9230 c-3 -5 0 -13 9 -16 21 -8 71 -1 71 11 0 14 -72 19 -80 5z"/>
<path d="M8667 9234 c-18 -19 0 -24 84 -24 68 0 90 3 87 13 -5 13 -158 23
-171 11z"/>
<path d="M8345 9160 c-3 -5 0 -13 9 -16 21 -8 71 -1 71 11 0 14 -72 19 -80 5z"/>
<path d="M8667 9164 c-18 -19 0 -24 84 -24 68 0 90 3 87 13 -5 13 -158 23
-171 11z"/>
<path d="M8872 9159 c2 -6 8 -10 13 -10 5 0 11 4 13 10 2 6 -4 11 -13 11 -9 0
-15 -5 -13 -11z"/>
<path d="M8922 9159 c2 -6 8 -10 13 -10 5 0 11 4 13 10 2 6 -4 11 -13 11 -9 0
-15 -5 -13 -11z"/>
<path d="M8972 9159 c2 -6 8 -10 13 -10 5 0 11 4 13 10 2 6 -4 11 -13 11 -9 0
-15 -5 -13 -11z"/>
<path d="M9022 9159 c2 -6 8 -10 13 -10 5 0 11 4 13 10 2 6 -4 11 -13 11 -9 0
-15 -5 -13 -11z"/>
<path d="M9075 9161 c-6 -11 9 -23 19 -14 9 9 7 23 -3 23 -6 0 -12 -4 -16 -9z"/>
<path d="M9132 9161 c2 -7 7 -12 11 -12 12 1 9 15 -3 20 -7 2 -11 -2 -8 -8z"/>
<path d="M7323 9670 c-43 -18 -58 -56 -58 -154 0 -74 3 -91 15 -91 12 0 16 19
21 85 6 93 13 116 36 124 42 16 117 -73 188 -221 58 -122 64 -143 36 -143 -31
0 -44 -32 -31 -79 13 -50 36 -77 82 -96 31 -12 38 -13 48 0 10 11 5 17 -27 32
-25 12 -44 31 -57 56 -23 47 -16 56 22 28 59 -42 65 -23 26 77 -44 110 -131
275 -171 321 -29 35 -89 74 -105 70 -2 0 -13 -4 -25 -9z"/>
<path d="M9569 9368 c-4 -41 5 -137 23 -228 37 -198 115 -359 205 -423 97 -70
99 -72 85 -101 -34 -75 -215 -89 -346 -28 -69 32 -96 39 -96 24 0 -16 35 -41
95 -69 54 -25 70 -28 170 -28 95 0 116 3 152 23 50 26 63 47 63 101 0 38 -3
43 -53 74 -69 45 -120 105 -163 194 -40 83 -79 227 -88 328 -12 121 -17 145
-32 145 -8 0 -15 -6 -15 -12z"/>
<path d="M9346 8041 c-14 -22 25 -32 110 -29 75 3 89 6 92 21 3 15 -7 17 -97
17 -55 0 -102 -4 -105 -9z"/>
<path d="M9815 9640 c-3 -5 0 -13 9 -16 21 -8 71 -1 71 11 0 14 -72 19 -80 5z"/>
<path d="M9943 9638 c2 -9 29 -13 87 -13 58 0 85 4 88 13 3 9 -19 12 -88 12
-69 0 -91 -3 -87 -12z"/>
<path d="M10167 9644 c-8 -8 1 -24 14 -24 5 0 9 7 9 15 0 15 -12 20 -23 9z"/>
<path d="M10215 9641 c-7 -12 12 -24 25 -16 11 7 4 25 -10 25 -5 0 -11 -4 -15
-9z"/>
<path d="M10270 9635 c0 -9 5 -15 11 -13 6 2 11 8 11 13 0 5 -5 11 -11 13 -6
2 -11 -4 -11 -13z"/>
<path d="M10320 9635 c0 -9 5 -15 11 -13 6 2 11 8 11 13 0 5 -5 11 -11 13 -6
2 -11 -4 -11 -13z"/>
<path d="M10372 9639 c2 -6 8 -10 13 -10 5 0 11 4 13 10 2 6 -4 11 -13 11 -9
0 -15 -5 -13 -11z"/>
<path d="M10425 9641 c-6 -11 9 -23 19 -14 9 9 7 23 -3 23 -6 0 -12 -4 -16 -9z"/>
<path d="M9815 9570 c-3 -6 0 -13 9 -16 23 -9 69 0 74 14 5 15 -74 17 -83 2z"/>
<path d="M9943 9568 c2 -9 29 -13 87 -13 58 0 85 4 88 13 3 9 -19 12 -88 12
-69 0 -91 -3 -87 -12z"/>
<path d="M9819 9509 c-20 -12 1 -29 36 -29 31 0 54 14 42 27 -9 8 -66 10 -78
2z"/>
<path d="M10022 9512 c-60 -2 -82 -6 -79 -15 5 -15 156 -22 171 -7 19 19 -7
25 -92 22z"/>
<path d="M10165 9510 c-4 -6 -3 -16 3 -22 6 -6 12 -6 17 2 4 6 3 16 -3 22 -6
6 -12 6 -17 -2z"/>
<path d="M10215 9501 c-6 -11 9 -23 19 -14 9 9 7 23 -3 23 -6 0 -12 -4 -16 -9z"/>
<path d="M10265 9501 c-7 -12 12 -24 25 -16 11 7 4 25 -10 25 -5 0 -11 -4 -15
-9z"/>
<path d="M10322 9501 c4 -13 18 -16 19 -4 0 4 -5 9 -11 12 -7 2 -11 -2 -8 -8z"/>
<path d="M10372 9499 c2 -6 8 -10 13 -10 5 0 11 4 13 10 2 6 -4 11 -13 11 -9
0 -15 -5 -13 -11z"/>
<path d="M10422 9499 c2 -6 8 -10 13 -10 5 0 11 4 13 10 2 6 -4 11 -13 11 -9
0 -15 -5 -13 -11z"/>
<path d="M9843 9442 c-18 -2 -33 -7 -33 -13 0 -10 6 -11 45 -11 39 0 45 1 45
11 0 12 -20 17 -57 13z"/>
<path d="M9947 9438 c-23 -14 5 -21 85 -21 57 1 83 5 83 13 0 13 -148 20 -168
8z"/>
<path d="M9817 9374 c-16 -17 -4 -24 39 -24 32 0 44 4 42 13 -5 13 -69 22 -81
11z"/>
<path d="M9947 9374 c-18 -19 0 -24 84 -24 68 0 90 3 87 13 -5 13 -158 23
-171 11z"/>
<path d="M10345 9310 c-4 -6 -3 -16 3 -22 6 -6 12 -6 17 2 4 6 3 16 -3 22 -6
6 -12 6 -17 -2z"/>
<path d="M10396 9313 c-11 -11 -6 -23 9 -23 8 0 15 4 15 9 0 13 -16 22 -24 14z"/>
<path d="M10445 9310 c-4 -6 -3 -16 3 -22 6 -6 12 -6 17 2 4 6 3 16 -3 22 -6
6 -12 6 -17 -2z"/>
<path d="M10496 9312 c-3 -6 -1 -14 5 -17 15 -10 25 3 12 16 -7 7 -13 7 -17 1z"/>
<path d="M10550 9305 c0 -8 5 -15 10 -15 6 0 10 7 10 15 0 8 -4 15 -10 15 -5
0 -10 -7 -10 -15z"/>
<path d="M10605 9309 c-10 -15 3 -25 16 -12 7 7 7 13 1 17 -6 3 -14 1 -17 -5z"/>
<path d="M9817 9304 c-17 -17 -4 -25 36 -22 23 2 42 8 42 13 0 12 -67 19 -78
9z"/>
<path d="M10137 9304 c-18 -19 0 -24 84 -24 68 0 90 3 87 13 -5 13 -158 23
-171 11z"/>
<path d="M9815 9230 c-3 -5 0 -13 9 -16 21 -8 71 -1 71 11 0 14 -72 19 -80 5z"/>
<path d="M10137 9234 c-18 -19 0 -24 84 -24 68 0 90 3 87 13 -5 13 -158 23
-171 11z"/>
<path d="M9815 9160 c-3 -5 0 -13 9 -16 21 -8 71 -1 71 11 0 14 -72 19 -80 5z"/>
<path d="M10137 9164 c-18 -19 0 -24 84 -24 68 0 90 3 87 13 -5 13 -158 23
-171 11z"/>
<path d="M10342 9159 c2 -6 8 -10 13 -10 5 0 11 4 13 10 2 6 -4 11 -13 11 -9
0 -15 -5 -13 -11z"/>
<path d="M10392 9159 c2 -6 8 -10 13 -10 5 0 11 4 13 10 2 6 -4 11 -13 11 -9
0 -15 -5 -13 -11z"/>
<path d="M10445 9161 c-6 -11 9 -23 19 -14 9 9 7 23 -3 23 -6 0 -12 -4 -16 -9z"/>
<path d="M10492 9159 c2 -6 8 -10 13 -10 5 0 11 4 13 10 2 6 -4 11 -13 11 -9
0 -15 -5 -13 -11z"/>
<path d="M10550 9155 c0 -9 5 -15 11 -13 6 2 11 8 11 13 0 5 -5 11 -11 13 -6
2 -11 -4 -11 -13z"/>
<path d="M4860 7104 c0 -8 17 -46 39 -82 166 -287 349 -702 437 -990 39 -129
89 -353 100 -449 4 -39 12 -64 21 -67 24 -9 25 19 8 129 -61 392 -257 909
-524 1383 -48 84 -81 116 -81 76z"/>
<path d="M13165 6311 c-147 -40 -244 -99 -347 -210 -74 -80 -125 -171 -159
-281 -29 -95 -31 -261 -5 -360 54 -200 195 -371 380 -459 101 -49 178 -65 306
-65 128 0 205 16 306 65 185 88 326 259 380 459 26 99 24 265 -5 360 -69 225
-237 402 -452 475 -113 38 -296 45 -404 16z m313 -384 c5 -41 -178 -566 -200
-578 -25 -14 -58 6 -58 35 0 27 177 544 193 564 6 7 22 12 36 10 20 -2 27 -9
29 -31z m-357 -189 c19 -35 -7 -55 -131 -103 -67 -26 -119 -49 -116 -52 3 -3
58 -27 123 -53 109 -45 118 -51 121 -77 2 -15 -4 -37 -11 -47 -14 -19 -20 -18
-178 48 -90 37 -172 75 -181 83 -24 21 -23 75 1 97 10 9 90 45 177 80 165 66
172 67 195 24z m808 -119 c21 -38 7 -75 -37 -98 -20 -10 -100 -44 -177 -76
l-139 -57 -18 22 c-21 26 -23 53 -5 68 6 6 66 32 131 58 66 26 116 49 110 51
-5 2 -63 25 -129 51 -108 43 -120 50 -123 74 -2 17 4 34 17 47 l20 20 168 -68
c130 -52 171 -73 182 -92z"/>
</g>
</svg>
